<?xml version="1.0" encoding="UTF-8"?>
<!DOCTYPE score-partwise PUBLIC "-//Recordare//DTD MusicXML 3.0 Partwise//EN" "http://www.musicxml.org/dtds/partwise.dtd">
<score-partwise>
  <work>
    <work-title>Jõuluöö</work-title>
    </work>
  <identification>
    <creator type="composer">A.Adam / R.Eespere</creator>
    <encoding>
      <software>MuseScore 2.0.0</software>
      <encoding-date>2014-11-20</encoding-date>
      </encoding>
    </identification>
  <defaults>
    <scaling>
      <millimeters>7.056</millimeters>
      <tenths>40</tenths>
      </scaling>
    <page-layout>
      <page-height>1683.27</page-height>
      <page-width>1190.81</page-width>
      <page-margins type="even">
        <left-margin>57.0295</left-margin>
        <right-margin>56.6893</right-margin>
        <top-margin>56.6893</top-margin>
        <bottom-margin>113.379</bottom-margin>
        </page-margins>
      <page-margins type="odd">
        <left-margin>56.6893</left-margin>
        <right-margin>57.0295</right-margin>
        <top-margin>56.6893</top-margin>
        <bottom-margin>113.379</bottom-margin>
        </page-margins>
      </page-layout>
    <word-font font-family="FreeSerif" font-size="10"/>
    <lyric-font font-family="FreeSerif" font-size="11"/>
    </defaults>
  <credit page="1">
    <credit-words default-x="595.407" default-y="1626.58" justify="center" valign="top" font-size="24">Jõuluöö</credit-words>
    </credit>
  <credit page="1">
    <credit-words default-x="1133.79" default-y="1526.58" justify="right" valign="bottom" font-size="12">A.Adam / R.Eespere</credit-words>
    </credit>
  <part-list>
    <part-group type="start" number="1">
      <group-symbol>bracket</group-symbol>
      </part-group>
    <score-part id="P1">
      <part-name>S
A</part-name>
      <score-instrument id="P1-I3">
        <instrument-name>S
A</instrument-name>
        </score-instrument>
      <midi-instrument id="P1-I3">
        <midi-channel>1</midi-channel>
        <midi-program>53</midi-program>
        <volume>78.7402</volume>
        <pan>0</pan>
        </midi-instrument>
      </score-part>
    <score-part id="P2">
      <part-name>T
B</part-name>
      <score-instrument id="P2-I3">
        <instrument-name>T
B</instrument-name>
        </score-instrument>
      <midi-instrument id="P2-I3">
        <midi-channel>2</midi-channel>
        <midi-program>53</midi-program>
        <volume>78.7402</volume>
        <pan>0</pan>
        </midi-instrument>
      </score-part>
    <part-group type="stop" number="1"/>
    </part-list>
  <part id="P1">
    <measure number="1" width="191.04">
      <print>
        <system-layout>
          <system-margins>
            <left-margin>33.41</left-margin>
            <right-margin>0.00</right-margin>
            </system-margins>
          <top-system-distance>170.00</top-system-distance>
          </system-layout>
        </print>
      <attributes>
        <divisions>4</divisions>
        <key>
          <fifths>-5</fifths>
          <mode>major</mode>
          </key>
        <time symbol="common">
          <beats>4</beats>
          <beat-type>4</beat-type>
          </time>
        <clef>
          <sign>G</sign>
          <line>2</line>
          </clef>
        </attributes>
      <direction placement="above">
        <direction-type>
          <metronome parentheses="no">
            <beat-unit>quarter</beat-unit>
            <per-minute>80</per-minute>
            </metronome>
          </direction-type>
        <sound tempo="79.9998"/>
        </direction>
      <note>
        <rest/>
        <duration>16</duration>
        <voice>1</voice>
        </note>
      </measure>
    <measure number="2" width="85.36">
      <note>
        <rest/>
        <duration>16</duration>
        <voice>1</voice>
        </note>
      </measure>
    <measure number="3" width="82.28">
      <attributes>
        <time>
          <beats>2</beats>
          <beat-type>4</beat-type>
          </time>
        </attributes>
      <note>
        <rest/>
        <duration>8</duration>
        <voice>1</voice>
        </note>
      </measure>
    <measure number="4" width="104.74">
      <attributes>
        <time symbol="common">
          <beats>4</beats>
          <beat-type>4</beat-type>
          </time>
        </attributes>
      <note>
        <rest/>
        <duration>16</duration>
        <voice>1</voice>
        </note>
      </measure>
    <measure number="5" width="169.05">
      <note>
        <rest/>
        <duration>16</duration>
        <voice>1</voice>
        </note>
      </measure>
    <measure number="6" width="215.57">
      <note>
        <rest/>
        <duration>16</duration>
        <voice>1</voice>
        </note>
      </measure>
    <measure number="7" width="195.66">
      <note>
        <rest/>
        <duration>16</duration>
        <voice>1</voice>
        </note>
      </measure>
    <measure number="8" width="327.70">
      <print new-system="yes">
        <system-layout>
          <system-margins>
            <left-margin>6.50</left-margin>
            <right-margin>0.00</right-margin>
            </system-margins>
          <system-distance>112.63</system-distance>
          </system-layout>
        </print>
      <note>
        <rest/>
        <duration>16</duration>
        <voice>1</voice>
        </note>
      </measure>
    <measure number="9" width="134.26">
      <note>
        <rest/>
        <duration>16</duration>
        <voice>1</voice>
        </note>
      </measure>
    <measure number="10" width="170.13">
      <direction placement="below">
        <direction-type>
          <dynamics>
            <p/>
            </dynamics>
          </direction-type>
        <sound dynamics="54.44"/>
        </direction>
      <note>
        <rest/>
        <duration>8</duration>
        <voice>1</voice>
        <type>half</type>
        </note>
      <note default-x="65.74" default-y="-35.00">
        <pitch>
          <step>F</step>
          <octave>4</octave>
          </pitch>
        <duration>4</duration>
        <voice>1</voice>
        <type>quarter</type>
        <stem>up</stem>
        <lyric number="1">
          <syllabic>single</syllabic>
          <text>Nii</text>
          </lyric>
        </note>
      <note default-x="107.96" default-y="-35.00">
        <pitch>
          <step>F</step>
          <octave>4</octave>
          </pitch>
        <duration>3</duration>
        <voice>1</voice>
        <type>eighth</type>
        <dot/>
        <stem>up</stem>
        <beam number="1">begin</beam>
        <lyric number="1">
          <syllabic>begin</syllabic>
          <text>kau</text>
          </lyric>
        </note>
      <note default-x="145.41" default-y="-35.00">
        <pitch>
          <step>F</step>
          <octave>4</octave>
          </pitch>
        <duration>1</duration>
        <voice>1</voice>
        <type>16th</type>
        <stem>up</stem>
        <beam number="1">end</beam>
        <beam number="2">backward hook</beam>
        <lyric number="1">
          <syllabic>end</syllabic>
          <text>a</text>
          </lyric>
        </note>
      </measure>
    <measure number="11" width="223.67">
      <note default-x="23.50" default-y="-25.00">
        <pitch>
          <step>A</step>
          <alter>-1</alter>
          <octave>4</octave>
          </pitch>
        <duration>6</duration>
        <voice>1</voice>
        <type>quarter</type>
        <dot/>
        <stem>up</stem>
        <lyric number="1">
          <syllabic>begin</syllabic>
          <text>maa</text>
          </lyric>
        </note>
      <note default-x="79.24" default-y="-25.00">
        <pitch>
          <step>A</step>
          <alter>-1</alter>
          <octave>4</octave>
          </pitch>
        <duration>2</duration>
        <voice>1</voice>
        <type>eighth</type>
        <stem>up</stem>
        <lyric number="1">
          <syllabic>end</syllabic>
          <text>ilm</text>
          </lyric>
        </note>
      <note default-x="107.80" default-y="-20.00">
        <pitch>
          <step>B</step>
          <alter>-1</alter>
          <octave>4</octave>
          </pitch>
        <duration>2</duration>
        <voice>1</voice>
        <type>eighth</type>
        <stem>up</stem>
        <beam number="1">begin</beam>
        <lyric number="1">
          <syllabic>begin</syllabic>
          <text>ä</text>
          </lyric>
        </note>
      <note default-x="136.37" default-y="-20.00">
        <pitch>
          <step>B</step>
          <alter>-1</alter>
          <octave>4</octave>
          </pitch>
        <duration>2</duration>
        <voice>1</voice>
        <type>eighth</type>
        <stem>up</stem>
        <beam number="1">continue</beam>
        <lyric number="1">
          <syllabic>end</syllabic>
          <text>gas</text>
          </lyric>
        </note>
      <note default-x="164.94" default-y="-30.00">
        <pitch>
          <step>G</step>
          <alter>-1</alter>
          <octave>4</octave>
          </pitch>
        <duration>2</duration>
        <voice>1</voice>
        <type>eighth</type>
        <stem>up</stem>
        <beam number="1">continue</beam>
        <lyric number="1">
          <syllabic>begin</syllabic>
          <text>pa</text>
          </lyric>
        </note>
      <note default-x="193.51" default-y="-20.00">
        <pitch>
          <step>B</step>
          <alter>-1</alter>
          <octave>4</octave>
          </pitch>
        <duration>2</duration>
        <voice>1</voice>
        <type>eighth</type>
        <stem>up</stem>
        <beam number="1">end</beam>
        <lyric number="1">
          <syllabic>end</syllabic>
          <text>tu</text>
          </lyric>
        </note>
      </measure>
    <measure number="12" width="214.84">
      <note default-x="20.00" default-y="-10.00">
        <pitch>
          <step>D</step>
          <alter>-1</alter>
          <octave>5</octave>
          </pitch>
        <duration>8</duration>
        <voice>1</voice>
        <type>half</type>
        <stem>down</stem>
        <lyric number="1">
          <syllabic>begin</syllabic>
          <text>vae</text>
          </lyric>
        </note>
      <note default-x="88.19" default-y="-25.00">
        <pitch>
          <step>A</step>
          <alter>-1</alter>
          <octave>4</octave>
          </pitch>
        <duration>2</duration>
        <voice>1</voice>
        <type>eighth</type>
        <stem>up</stem>
        <beam number="1">begin</beam>
        <lyric number="1">
          <syllabic>end</syllabic>
          <text>vas,</text>
          </lyric>
        </note>
      <note default-x="119.19" default-y="-25.00">
        <pitch>
          <step>A</step>
          <alter>-1</alter>
          <octave>4</octave>
          </pitch>
        <duration>2</duration>
        <voice>1</voice>
        <type>eighth</type>
        <stem>up</stem>
        <beam number="1">continue</beam>
        <lyric number="1">
          <syllabic>single</syllabic>
          <text>sel</text>
          </lyric>
        </note>
      <note default-x="151.24" default-y="-30.00">
        <pitch>
          <step>G</step>
          <octave>4</octave>
          </pitch>
        <duration>2</duration>
        <voice>1</voice>
        <type>eighth</type>
        <accidental>natural</accidental>
        <stem>up</stem>
        <beam number="1">continue</beam>
        <lyric number="1">
          <syllabic>single</syllabic>
          <text>ööl</text>
          </lyric>
        </note>
      <note default-x="182.24" default-y="-35.00">
        <pitch>
          <step>F</step>
          <octave>4</octave>
          </pitch>
        <duration>2</duration>
        <voice>1</voice>
        <type>eighth</type>
        <stem>up</stem>
        <beam number="1">end</beam>
        <lyric number="1">
          <syllabic>single</syllabic>
          <text>on</text>
          </lyric>
        </note>
      </measure>
    <measure number="13" width="385.84">
      <print new-system="yes">
        <system-layout>
          <system-margins>
            <left-margin>6.50</left-margin>
            <right-margin>0.00</right-margin>
            </system-margins>
          <system-distance>112.63</system-distance>
          </system-layout>
        </print>
      <direction placement="above">
        <direction-type>
          <dynamics>
            <mf/>
            </dynamics>
          </direction-type>
        <sound dynamics="88.89"/>
        </direction>
      <note default-x="112.38" default-y="-15.00">
        <pitch>
          <step>C</step>
          <octave>5</octave>
          </pitch>
        <duration>4</duration>
        <voice>1</voice>
        <type>quarter</type>
        <stem>down</stem>
        <lyric number="1">
          <syllabic>begin</syllabic>
          <text>saa</text>
          </lyric>
        </note>
      <note default-x="160.42" default-y="-25.00">
        <pitch>
          <step>A</step>
          <alter>-1</alter>
          <octave>4</octave>
          </pitch>
        <duration>2</duration>
        <voice>1</voice>
        <type>eighth</type>
        <stem>up</stem>
        <beam number="1">begin</beam>
        <lyric number="1">
          <syllabic>middle</syllabic>
          <text>bu</text>
          </lyric>
        </note>
      <note default-x="195.36" default-y="-20.00">
        <pitch>
          <step>B</step>
          <alter>-1</alter>
          <octave>4</octave>
          </pitch>
        <duration>2</duration>
        <voice>1</voice>
        <type>eighth</type>
        <stem>up</stem>
        <beam number="1">end</beam>
        <lyric number="1">
          <syllabic>end</syllabic>
          <text>nud</text>
          </lyric>
        </note>
      <direction placement="above">
        <direction-type>
          <words>dim.</words>
          </direction-type>
        </direction>
      <note default-x="230.30" default-y="-15.00">
        <pitch>
          <step>C</step>
          <octave>5</octave>
          </pitch>
        <duration>2</duration>
        <voice>1</voice>
        <type>eighth</type>
        <stem>down</stem>
        <beam number="1">begin</beam>
        <lyric number="1">
          <syllabic>begin</syllabic>
          <text>lu</text>
          </lyric>
        </note>
      <note default-x="265.24" default-y="-15.00">
        <pitch>
          <step>C</step>
          <octave>5</octave>
          </pitch>
        <duration>2</duration>
        <voice>1</voice>
        <type>eighth</type>
        <stem>down</stem>
        <beam number="1">continue</beam>
        <lyric number="1">
          <syllabic>middle</syllabic>
          <text>nas</text>
          </lyric>
        </note>
      <note default-x="298.01" default-y="-5.00">
        <grace slash="yes"/>
        <pitch>
          <step>E</step>
          <alter>-1</alter>
          <octave>5</octave>
          </pitch>
        <voice>1</voice>
        <type>eighth</type>
        <stem>up</stem>
        <lyric number="1">
          <syllabic>middle</syllabic>
          <text>tu</text>
          </lyric>
        </note>
      <note default-x="316.41" default-y="-10.00">
        <pitch>
          <step>D</step>
          <alter>-1</alter>
          <octave>5</octave>
          </pitch>
        <duration>3</duration>
        <voice>1</voice>
        <type>eighth</type>
        <dot/>
        <stem>down</stem>
        <beam number="1">continue</beam>
        <notations>
          <slur type="stop" number="1"/>
          <slur type="start" number="1"/>
          </notations>
        <lyric number="1">
          <syllabic>middle</syllabic>
          <text>tu</text>
          </lyric>
        </note>
      <note default-x="359.01" default-y="-15.00">
        <pitch>
          <step>C</step>
          <octave>5</octave>
          </pitch>
        <duration>1</duration>
        <voice>1</voice>
        <type>16th</type>
        <stem>down</stem>
        <beam number="1">end</beam>
        <beam number="2">backward hook</beam>
        <lyric number="1">
          <syllabic>end</syllabic>
          <text>se</text>
          </lyric>
        </note>
      </measure>
    <measure number="14" width="197.42">
      <note default-x="26.77" default-y="-35.00">
        <pitch>
          <step>F</step>
          <octave>4</octave>
          </pitch>
        <duration>4</duration>
        <voice>1</voice>
        <type>quarter</type>
        <stem>up</stem>
        <lyric number="1">
          <syllabic>single</syllabic>
          <text>tund.</text>
          </lyric>
        </note>
      <note>
        <rest/>
        <duration>4</duration>
        <voice>1</voice>
        <type>quarter</type>
        </note>
      <note>
        <rest/>
        <duration>4</duration>
        <voice>1</voice>
        <type>quarter</type>
        </note>
      <note>
        <rest/>
        <duration>2</duration>
        <voice>1</voice>
        <type>eighth</type>
        </note>
      <direction placement="above">
        <direction-type>
          <dynamics>
            <mp/>
            </dynamics>
          </direction-type>
        <sound dynamics="71.11"/>
        </direction>
      <note default-x="163.11" default-y="-25.00">
        <pitch>
          <step>A</step>
          <alter>-1</alter>
          <octave>4</octave>
          </pitch>
        <duration>2</duration>
        <voice>1</voice>
        <type>eighth</type>
        <stem>up</stem>
        <lyric number="1">
          <syllabic>single</syllabic>
          <text>Oo,</text>
          </lyric>
        </note>
      </measure>
    <measure number="15" width="186.10">
      <note default-x="17.03" default-y="-25.00">
        <pitch>
          <step>A</step>
          <alter>-1</alter>
          <octave>4</octave>
          </pitch>
        <duration>4</duration>
        <voice>1</voice>
        <type>quarter</type>
        <stem>up</stem>
        <lyric number="1">
          <syllabic>begin</syllabic>
          <text>pü</text>
          </lyric>
        </note>
      <note default-x="58.90" default-y="-20.00">
        <pitch>
          <step>B</step>
          <alter>-1</alter>
          <octave>4</octave>
          </pitch>
        <duration>4</duration>
        <voice>1</voice>
        <type>quarter</type>
        <stem>up</stem>
        <lyric number="1">
          <syllabic>end</syllabic>
          <text>ha</text>
          </lyric>
        </note>
      <note default-x="100.77" default-y="-40.00">
        <pitch>
          <step>E</step>
          <alter>-1</alter>
          <octave>4</octave>
          </pitch>
        <duration>4</duration>
        <voice>1</voice>
        <type>quarter</type>
        <stem>up</stem>
        <lyric number="1">
          <syllabic>single</syllabic>
          <text>öö,</text>
          </lyric>
        </note>
      <note default-x="142.63" default-y="-25.00">
        <pitch>
          <step>A</step>
          <alter>-1</alter>
          <octave>4</octave>
          </pitch>
        <duration>4</duration>
        <voice>1</voice>
        <type>quarter</type>
        <stem>up</stem>
        <lyric number="1">
          <syllabic>single</syllabic>
          <text>sa</text>
          </lyric>
        </note>
      <backup>
        <duration>16</duration>
        </backup>
      <note default-x="17.03" default-y="-45.00">
        <pitch>
          <step>D</step>
          <alter>-1</alter>
          <octave>4</octave>
          </pitch>
        <duration>12</duration>
        <voice>2</voice>
        <type>half</type>
        <dot/>
        <stem>down</stem>
        <lyric number="2">
          <syllabic>begin</syllabic>
          <text>Pü</text>
          </lyric>
        </note>
      <note default-x="142.63" default-y="-50.00">
        <pitch>
          <step>C</step>
          <octave>4</octave>
          </pitch>
        <duration>4</duration>
        <voice>2</voice>
        <type>quarter</type>
        <stem>down</stem>
        <lyric number="2">
          <syllabic>end</syllabic>
          <text>ha</text>
          </lyric>
        </note>
      </measure>
    <measure number="16" width="301.23">
      <note default-x="18.35" default-y="-20.00">
        <pitch>
          <step>B</step>
          <alter>-1</alter>
          <octave>4</octave>
          </pitch>
        <duration>3</duration>
        <voice>1</voice>
        <type>eighth</type>
        <dot/>
        <stem>up</stem>
        <beam number="1">begin</beam>
        <lyric number="1">
          <syllabic>begin</syllabic>
          <text>öö</text>
          </lyric>
        </note>
      <note default-x="64.11" default-y="-25.00">
        <pitch>
          <step>A</step>
          <alter>-1</alter>
          <octave>4</octave>
          </pitch>
        <duration>1</duration>
        <voice>1</voice>
        <type>16th</type>
        <stem>up</stem>
        <beam number="1">continue</beam>
        <beam number="2">forward hook</beam>
        <lyric number="1">
          <syllabic>end</syllabic>
          <text>dest</text>
          </lyric>
        </note>
      <note default-x="97.89" default-y="-10.00">
        <pitch>
          <step>D</step>
          <alter>-1</alter>
          <octave>5</octave>
          </pitch>
        <duration>2</duration>
        <voice>1</voice>
        <type>eighth</type>
        <stem>up</stem>
        <beam number="1">continue</beam>
        <lyric number="1">
          <syllabic>begin</syllabic>
          <text>kõi</text>
          </lyric>
        </note>
      <note default-x="135.42" default-y="-35.00">
        <pitch>
          <step>F</step>
          <octave>4</octave>
          </pitch>
        <duration>2</duration>
        <voice>1</voice>
        <type>eighth</type>
        <stem>up</stem>
        <beam number="1">end</beam>
        <lyric number="1">
          <syllabic>end</syllabic>
          <text>ge</text>
          </lyric>
        </note>
      <note default-x="172.96" default-y="-20.00">
        <pitch>
          <step>B</step>
          <alter>-1</alter>
          <octave>4</octave>
          </pitch>
        <duration>4</duration>
        <voice>1</voice>
        <type>quarter</type>
        <stem>up</stem>
        <lyric number="1">
          <syllabic>begin</syllabic>
          <text>kau</text>
          </lyric>
        </note>
      <note default-x="224.56" default-y="-25.00">
        <pitch>
          <step>A</step>
          <alter>-1</alter>
          <octave>4</octave>
          </pitch>
        <duration>2</duration>
        <voice>1</voice>
        <type>eighth</type>
        <stem>up</stem>
        <beam number="1">begin</beam>
        <lyric number="1">
          <syllabic>end</syllabic>
          <text>nim,</text>
          </lyric>
        </note>
      <note default-x="262.10" default-y="-25.00">
        <pitch>
          <step>A</step>
          <alter>-1</alter>
          <octave>4</octave>
          </pitch>
        <duration>2</duration>
        <voice>1</voice>
        <type>eighth</type>
        <stem>up</stem>
        <beam number="1">end</beam>
        <lyric number="1">
          <syllabic>single</syllabic>
          <text>sel</text>
          </lyric>
        </note>
      <backup>
        <duration>16</duration>
        </backup>
      <note default-x="18.35" default-y="-45.00">
        <pitch>
          <step>D</step>
          <alter>-1</alter>
          <octave>4</octave>
          </pitch>
        <duration>6</duration>
        <voice>2</voice>
        <type>quarter</type>
        <dot/>
        <stem>down</stem>
        <lyric number="2">
          <syllabic>single</syllabic>
          <text>öö,</text>
          </lyric>
        </note>
      <note>
        <rest>
          <display-step>G</display-step>
          <display-octave>4</display-octave>
          </rest>
        <duration>2</duration>
        <voice>2</voice>
        <type>eighth</type>
        </note>
      <note default-x="172.96" default-y="-35.00">
        <pitch>
          <step>F</step>
          <octave>4</octave>
          </pitch>
        <duration>4</duration>
        <voice>2</voice>
        <type>quarter</type>
        <stem>down</stem>
        <lyric number="2">
          <syllabic>begin</syllabic>
          <text>kõi</text>
          </lyric>
        </note>
      <note default-x="224.56" default-y="-45.00">
        <pitch>
          <step>D</step>
          <alter>-1</alter>
          <octave>4</octave>
          </pitch>
        <duration>4</duration>
        <voice>2</voice>
        <type>quarter</type>
        <stem>down</stem>
        <lyric number="2">
          <syllabic>end</syllabic>
          <text>ge</text>
          </lyric>
        </note>
      </measure>
    <measure number="17" width="260.63">
      <print new-system="yes">
        <system-layout>
          <system-margins>
            <left-margin>6.50</left-margin>
            <right-margin>-0.00</right-margin>
            </system-margins>
          <system-distance>112.63</system-distance>
          </system-layout>
        </print>
      <note default-x="114.53" default-y="-25.00">
        <pitch>
          <step>A</step>
          <alter>-1</alter>
          <octave>4</octave>
          </pitch>
        <duration>4</duration>
        <voice>1</voice>
        <type>quarter</type>
        <stem>up</stem>
        <lyric number="1">
          <syllabic>single</syllabic>
          <text>ööl</text>
          </lyric>
        </note>
      <note default-x="150.55" default-y="-20.00">
        <pitch>
          <step>B</step>
          <alter>-1</alter>
          <octave>4</octave>
          </pitch>
        <duration>4</duration>
        <voice>1</voice>
        <type>quarter</type>
        <stem>up</stem>
        <lyric number="1">
          <syllabic>single</syllabic>
          <text>on</text>
          </lyric>
        </note>
      <note default-x="186.58" default-y="-40.00">
        <pitch>
          <step>E</step>
          <alter>-1</alter>
          <octave>4</octave>
          </pitch>
        <duration>4</duration>
        <voice>1</voice>
        <type>quarter</type>
        <stem>up</stem>
        <lyric number="1">
          <syllabic>begin</syllabic>
          <text>sün</text>
          </lyric>
        </note>
      <note default-x="223.01" default-y="-25.00">
        <pitch>
          <step>A</step>
          <alter>-1</alter>
          <octave>4</octave>
          </pitch>
        <duration>4</duration>
        <voice>1</voice>
        <type>quarter</type>
        <stem>up</stem>
        <lyric number="1">
          <syllabic>end</syllabic>
          <text>dind</text>
          </lyric>
        </note>
      <backup>
        <duration>16</duration>
        </backup>
      <note default-x="114.53" default-y="-45.00">
        <pitch>
          <step>D</step>
          <alter>-1</alter>
          <octave>4</octave>
          </pitch>
        <duration>12</duration>
        <voice>2</voice>
        <type>half</type>
        <dot/>
        <stem>down</stem>
        <lyric number="2">
          <syllabic>begin</syllabic>
          <text>kau</text>
          </lyric>
        </note>
      <note default-x="223.01" default-y="-50.00">
        <pitch>
          <step>C</step>
          <octave>4</octave>
          </pitch>
        <duration>4</duration>
        <voice>2</voice>
        <type>quarter</type>
        <stem>down</stem>
        <lyric number="2">
          <syllabic>end</syllabic>
          <text>nim</text>
          </lyric>
        </note>
      </measure>
    <measure number="18" width="212.36">
      <note default-x="21.64" default-y="-20.00">
        <pitch>
          <step>B</step>
          <alter>-1</alter>
          <octave>4</octave>
          </pitch>
        <duration>3</duration>
        <voice>1</voice>
        <type>eighth</type>
        <dot/>
        <stem>up</stem>
        <beam number="1">begin</beam>
        <lyric number="1">
          <syllabic>begin</syllabic>
          <text>mei</text>
          </lyric>
        </note>
      <note default-x="51.28" default-y="-25.00">
        <pitch>
          <step>A</step>
          <alter>-1</alter>
          <octave>4</octave>
          </pitch>
        <duration>1</duration>
        <voice>1</voice>
        <type>16th</type>
        <stem>up</stem>
        <beam number="1">continue</beam>
        <beam number="2">forward hook</beam>
        <lyric number="1">
          <syllabic>end</syllabic>
          <text>le</text>
          </lyric>
        </note>
      <note default-x="75.00" default-y="-10.00">
        <pitch>
          <step>D</step>
          <alter>-1</alter>
          <octave>5</octave>
          </pitch>
        <duration>2</duration>
        <voice>1</voice>
        <type>eighth</type>
        <stem>up</stem>
        <beam number="1">continue</beam>
        <lyric number="1">
          <syllabic>begin</syllabic>
          <text>Jee</text>
          </lyric>
        </note>
      <note default-x="104.29" default-y="-35.00">
        <pitch>
          <step>F</step>
          <octave>4</octave>
          </pitch>
        <duration>2</duration>
        <voice>1</voice>
        <type>eighth</type>
        <stem>up</stem>
        <beam number="1">end</beam>
        <lyric number="1">
          <syllabic>end</syllabic>
          <text>sus</text>
          </lyric>
        </note>
      <note default-x="143.59" default-y="-25.00">
        <pitch>
          <step>A</step>
          <alter>-1</alter>
          <octave>4</octave>
          </pitch>
        <duration>4</duration>
        <voice>1</voice>
        <type>quarter</type>
        <stem>up</stem>
        <lyric number="1">
          <syllabic>single</syllabic>
          <text>Krist.</text>
          </lyric>
        </note>
      <note>
        <rest/>
        <duration>4</duration>
        <voice>1</voice>
        <type>quarter</type>
        </note>
      <backup>
        <duration>16</duration>
        </backup>
      <note default-x="21.64" default-y="-45.00">
        <pitch>
          <step>D</step>
          <alter>-1</alter>
          <octave>4</octave>
          </pitch>
        <duration>12</duration>
        <voice>2</voice>
        <type>half</type>
        <dot/>
        <stem>down</stem>
        <lyric number="2">
          <syllabic>single</syllabic>
          <text>öö.</text>
          </lyric>
        </note>
      <note>
        <rest/>
        <duration>4</duration>
        <voice>2</voice>
        <type>quarter</type>
        </note>
      </measure>
    <measure number="19" width="84.23">
      <note default-x="12.00" default-y="-10.00">
        <pitch>
          <step>D</step>
          <alter>-1</alter>
          <octave>5</octave>
          </pitch>
        <duration>12</duration>
        <voice>1</voice>
        <type>half</type>
        <dot/>
        <stem>up</stem>
        </note>
      <note>
        <rest/>
        <duration>4</duration>
        <voice>1</voice>
        <type>quarter</type>
        </note>
      <backup>
        <duration>16</duration>
        </backup>
      <note default-x="12.74" default-y="-35.00">
        <pitch>
          <step>F</step>
          <octave>4</octave>
          </pitch>
        <duration>12</duration>
        <voice>2</voice>
        <type>half</type>
        <dot/>
        <stem>down</stem>
        </note>
      <note>
        <rest/>
        <duration>4</duration>
        <voice>2</voice>
        <type>quarter</type>
        </note>
      </measure>
    <measure number="20" width="64.17">
      <note>
        <rest/>
        <duration>16</duration>
        <voice>1</voice>
        </note>
      </measure>
    <measure number="21" width="64.17">
      <note>
        <rest/>
        <duration>16</duration>
        <voice>1</voice>
        </note>
      </measure>
    <measure number="22" width="64.17">
      <note>
        <rest/>
        <duration>16</duration>
        <voice>1</voice>
        </note>
      </measure>
    <measure number="23" width="64.17">
      <note>
        <rest/>
        <duration>16</duration>
        <voice>1</voice>
        </note>
      </measure>
    <measure number="24" width="64.17">
      <note>
        <rest/>
        <duration>16</duration>
        <voice>1</voice>
        </note>
      </measure>
    <measure number="25" width="64.17">
      <note>
        <rest/>
        <duration>16</duration>
        <voice>1</voice>
        </note>
      </measure>
    <measure number="26" width="64.17">
      <note>
        <rest/>
        <duration>16</duration>
        <voice>1</voice>
        </note>
      </measure>
    <measure number="27" width="64.17">
      <note>
        <rest/>
        <duration>16</duration>
        <voice>1</voice>
        </note>
      </measure>
    <measure number="28" width="246.44">
      <print new-system="yes">
        <system-layout>
          <system-margins>
            <left-margin>6.50</left-margin>
            <right-margin>0.00</right-margin>
            </system-margins>
          <system-distance>112.63</system-distance>
          </system-layout>
        </print>
      <note>
        <rest/>
        <duration>16</duration>
        <voice>1</voice>
        </note>
      </measure>
    <measure number="29" width="163.03">
      <note>
        <rest/>
        <duration>16</duration>
        <voice>1</voice>
        </note>
      </measure>
    <measure number="30" width="163.03">
      <note>
        <rest/>
        <duration>16</duration>
        <voice>1</voice>
        </note>
      </measure>
    <measure number="31" width="163.03">
      <note>
        <rest/>
        <duration>16</duration>
        <voice>1</voice>
        </note>
      </measure>
    <measure number="32" width="163.03">
      <note>
        <rest/>
        <duration>16</duration>
        <voice>1</voice>
        </note>
      </measure>
    <measure number="33" width="172.03">
      <note>
        <rest/>
        <duration>16</duration>
        <voice>1</voice>
        </note>
      <barline location="right">
        <bar-style>light-heavy</bar-style>
        </barline>
      </measure>
    </part>
  <part id="P2">
    <measure number="1" width="191.04">
      <print>
        <staff-layout number="1">
          <staff-distance>65.00</staff-distance>
          </staff-layout>
        </print>
      <attributes>
        <divisions>4</divisions>
        <key>
          <fifths>-5</fifths>
          <mode>major</mode>
          </key>
        <time symbol="common">
          <beats>4</beats>
          <beat-type>4</beat-type>
          </time>
        <clef>
          <sign>F</sign>
          <line>4</line>
          </clef>
        </attributes>
      <note>
        <rest/>
        <duration>16</duration>
        <voice>1</voice>
        </note>
      </measure>
    <measure number="2" width="85.36">
      <note>
        <rest/>
        <duration>16</duration>
        <voice>1</voice>
        </note>
      </measure>
    <measure number="3" width="82.28">
      <attributes>
        <time>
          <beats>2</beats>
          <beat-type>4</beat-type>
          </time>
        </attributes>
      <note>
        <rest/>
        <duration>8</duration>
        <voice>1</voice>
        </note>
      </measure>
    <measure number="4" width="104.74">
      <attributes>
        <time symbol="common">
          <beats>4</beats>
          <beat-type>4</beat-type>
          </time>
        </attributes>
      <note>
        <rest/>
        <duration>16</duration>
        <voice>1</voice>
        </note>
      </measure>
    <measure number="5" width="169.05">
      <direction placement="below">
        <direction-type>
          <dynamics>
            <mp/>
            </dynamics>
          </direction-type>
        <sound dynamics="71.11"/>
        </direction>
      <direction placement="above">
        <direction-type>
          <words>tenor ja bass unis.
</words>
          </direction-type>
        </direction>
      <note>
        <rest/>
        <duration>8</duration>
        <voice>1</voice>
        <type>half</type>
        </note>
      <note default-x="64.69" default-y="-115.00">
        <pitch>
          <step>F</step>
          <octave>3</octave>
          </pitch>
        <duration>4</duration>
        <voice>1</voice>
        <type>quarter</type>
        <stem>down</stem>
        <lyric number="1">
          <syllabic>single</syllabic>
          <text>Oo,</text>
          </lyric>
        </note>
      <note default-x="106.08" default-y="-115.00">
        <pitch>
          <step>F</step>
          <octave>3</octave>
          </pitch>
        <duration>3</duration>
        <voice>1</voice>
        <type>eighth</type>
        <dot/>
        <stem>down</stem>
        <beam number="1">begin</beam>
        <lyric number="1">
          <syllabic>begin</syllabic>
          <text>jõu</text>
          </lyric>
        </note>
      <note default-x="142.79" default-y="-115.00">
        <pitch>
          <step>F</step>
          <octave>3</octave>
          </pitch>
        <duration>1</duration>
        <voice>1</voice>
        <type>16th</type>
        <stem>down</stem>
        <beam number="1">end</beam>
        <beam number="2">backward hook</beam>
        <lyric number="1">
          <syllabic>middle</syllabic>
          <text>lu</text>
          </lyric>
        </note>
      </measure>
    <measure number="6" width="215.57">
      <note default-x="15.94" default-y="-105.00">
        <pitch>
          <step>A</step>
          <alter>-1</alter>
          <octave>3</octave>
          </pitch>
        <duration>6</duration>
        <voice>1</voice>
        <type>quarter</type>
        <dot/>
        <stem>down</stem>
        <lyric number="1">
          <syllabic>end</syllabic>
          <text>öö</text>
          </lyric>
        </note>
      <note default-x="63.91" default-y="-105.00">
        <pitch>
          <step>A</step>
          <alter>-1</alter>
          <octave>3</octave>
          </pitch>
        <duration>2</duration>
        <voice>1</voice>
        <type>eighth</type>
        <stem>down</stem>
        <lyric number="1">
          <syllabic>single</syllabic>
          <text>täis</text>
          </lyric>
        </note>
      <note default-x="93.99" default-y="-100.00">
        <pitch>
          <step>B</step>
          <alter>-1</alter>
          <octave>3</octave>
          </pitch>
        <duration>2</duration>
        <voice>1</voice>
        <type>eighth</type>
        <stem>down</stem>
        <beam number="1">begin</beam>
        <lyric number="1">
          <syllabic>begin</syllabic>
          <text>hõ</text>
          </lyric>
        </note>
      <direction placement="above">
        <direction-type>
          <wedge type="crescendo"/>
          </direction-type>
        </direction>
      <note default-x="124.08" default-y="-100.00">
        <pitch>
          <step>B</step>
          <alter>-1</alter>
          <octave>3</octave>
          </pitch>
        <duration>2</duration>
        <voice>1</voice>
        <type>eighth</type>
        <stem>down</stem>
        <beam number="1">continue</beam>
        <lyric number="1">
          <syllabic>middle</syllabic>
          <text>be</text>
          </lyric>
        </note>
      <note default-x="154.17" default-y="-110.00">
        <pitch>
          <step>G</step>
          <alter>-1</alter>
          <octave>3</octave>
          </pitch>
        <duration>3</duration>
        <voice>1</voice>
        <type>eighth</type>
        <dot/>
        <stem>down</stem>
        <beam number="1">continue</beam>
        <lyric number="1">
          <syllabic>middle</syllabic>
          <text>täh</text>
          </lyric>
        </note>
      <note default-x="190.85" default-y="-100.00">
        <pitch>
          <step>B</step>
          <alter>-1</alter>
          <octave>3</octave>
          </pitch>
        <duration>1</duration>
        <voice>1</voice>
        <type>16th</type>
        <stem>down</stem>
        <beam number="1">end</beam>
        <beam number="2">backward hook</beam>
        <lyric number="1">
          <syllabic>end</syllabic>
          <text>ti</text>
          </lyric>
        </note>
      <direction placement="above">
        <direction-type>
          <wedge type="stop"/>
          </direction-type>
        </direction>
      </measure>
    <measure number="7" width="195.66">
      <direction placement="above">
        <direction-type>
          <wedge type="diminuendo"/>
          </direction-type>
        </direction>
      <note default-x="17.97" default-y="-90.00">
        <pitch>
          <step>D</step>
          <alter>-1</alter>
          <octave>4</octave>
          </pitch>
        <duration>8</duration>
        <voice>1</voice>
        <type>half</type>
        <stem>down</stem>
        <lyric number="1">
          <syllabic>begin</syllabic>
          <text>tae</text>
          </lyric>
        </note>
      <note default-x="80.45" default-y="-105.00">
        <pitch>
          <step>A</step>
          <alter>-1</alter>
          <octave>3</octave>
          </pitch>
        <duration>2</duration>
        <voice>1</voice>
        <type>eighth</type>
        <stem>down</stem>
        <beam number="1">begin</beam>
        <lyric number="1">
          <syllabic>end</syllabic>
          <text>vas,</text>
          </lyric>
        </note>
      <note default-x="108.85" default-y="-105.00">
        <pitch>
          <step>A</step>
          <alter>-1</alter>
          <octave>3</octave>
          </pitch>
        <duration>2</duration>
        <voice>1</voice>
        <type>eighth</type>
        <stem>down</stem>
        <beam number="1">continue</beam>
        <lyric number="1">
          <syllabic>single</syllabic>
          <text>su</text>
          </lyric>
        </note>
      <note default-x="137.26" default-y="-115.00">
        <pitch>
          <step>F</step>
          <octave>3</octave>
          </pitch>
        <duration>2</duration>
        <voice>1</voice>
        <type>eighth</type>
        <stem>down</stem>
        <beam number="1">continue</beam>
        <lyric number="1">
          <syllabic>begin</syllabic>
          <text>var</text>
          </lyric>
        </note>
      <note default-x="165.66" default-y="-120.00">
        <pitch>
          <step>E</step>
          <alter>-1</alter>
          <octave>3</octave>
          </pitch>
        <duration>2</duration>
        <voice>1</voice>
        <type>eighth</type>
        <stem>down</stem>
        <beam number="1">end</beam>
        <lyric number="1">
          <syllabic>end</syllabic>
          <text>ju</text>
          </lyric>
        </note>
      <direction placement="above">
        <direction-type>
          <wedge type="stop"/>
          </direction-type>
        </direction>
      </measure>
    <measure number="8" width="327.70">
      <print new-system="yes">
        <staff-layout number="1">
          <staff-distance>80.00</staff-distance>
          </staff-layout>
        </print>
      <direction placement="above">
        <direction-type>
          <words>sopran ja alt unis.</words>
          </direction-type>
        </direction>
      <note default-x="109.17" default-y="-140.00">
        <pitch>
          <step>D</step>
          <alter>-1</alter>
          <octave>3</octave>
          </pitch>
        <duration>4</duration>
        <voice>1</voice>
        <type>quarter</type>
        <stem>down</stem>
        <lyric number="1">
          <syllabic>single</syllabic>
          <text>all</text>
          </lyric>
        </note>
      <note default-x="152.84" default-y="-130.00">
        <pitch>
          <step>F</step>
          <octave>3</octave>
          </pitch>
        <duration>3</duration>
        <voice>1</voice>
        <type>eighth</type>
        <dot/>
        <stem>down</stem>
        <beam number="1">begin</beam>
        <lyric number="1">
          <syllabic>begin</syllabic>
          <text>jõu</text>
          </lyric>
        </note>
      <note default-x="191.57" default-y="-125.00">
        <pitch>
          <step>G</step>
          <alter>-1</alter>
          <octave>3</octave>
          </pitch>
        <duration>1</duration>
        <voice>1</voice>
        <type>16th</type>
        <stem>down</stem>
        <beam number="1">end</beam>
        <beam number="2">backward hook</beam>
        <lyric number="1">
          <syllabic>middle</syllabic>
          <text>lu</text>
          </lyric>
        </note>
      <note default-x="218.91" default-y="-120.00">
        <pitch>
          <step>A</step>
          <alter>-1</alter>
          <octave>3</octave>
          </pitch>
        <duration>4</duration>
        <voice>1</voice>
        <type>quarter</type>
        <stem>down</stem>
        <lyric number="1">
          <syllabic>end</syllabic>
          <text>laps</text>
          </lyric>
        </note>
      <note default-x="262.58" default-y="-125.00">
        <pitch>
          <step>G</step>
          <alter>-1</alter>
          <octave>3</octave>
          </pitch>
        <duration>2</duration>
        <voice>1</voice>
        <type>eighth</type>
        <stem>down</stem>
        <beam number="1">begin</beam>
        <lyric number="1">
          <syllabic>begin</syllabic>
          <text>ma</text>
          </lyric>
        </note>
      <note default-x="294.34" default-y="-135.00">
        <pitch>
          <step>E</step>
          <alter>-1</alter>
          <octave>3</octave>
          </pitch>
        <duration>2</duration>
        <voice>1</voice>
        <type>eighth</type>
        <stem>down</stem>
        <beam number="1">end</beam>
        <lyric number="1">
          <syllabic>end</syllabic>
          <text>gab</text>
          </lyric>
        </note>
      </measure>
    <measure number="9" width="134.26">
      <note default-x="23.66" default-y="-140.00">
        <pitch>
          <step>D</step>
          <alter>-1</alter>
          <octave>3</octave>
          </pitch>
        <duration>4</duration>
        <voice>1</voice>
        <type>quarter</type>
        <stem>down</stem>
        <lyric number="1">
          <syllabic>single</syllabic>
          <text>und.</text>
          </lyric>
        </note>
      <note>
        <rest/>
        <duration>4</duration>
        <voice>1</voice>
        <type>quarter</type>
        </note>
      <note>
        <rest/>
        <duration>8</duration>
        <voice>1</voice>
        <type>half</type>
        </note>
      </measure>
    <measure number="10" width="170.13">
      <direction placement="below">
        <direction-type>
          <dynamics>
            <p/>
            </dynamics>
          </direction-type>
        <sound dynamics="54.44"/>
        </direction>
      <note>
        <rest/>
        <duration>8</duration>
        <voice>1</voice>
        <type>half</type>
        </note>
      <note default-x="65.74" default-y="-130.00">
        <pitch>
          <step>F</step>
          <octave>3</octave>
          </pitch>
        <duration>4</duration>
        <voice>1</voice>
        <type>quarter</type>
        <stem>down</stem>
        </note>
      <note default-x="107.96" default-y="-130.00">
        <pitch>
          <step>F</step>
          <octave>3</octave>
          </pitch>
        <duration>3</duration>
        <voice>1</voice>
        <type>eighth</type>
        <dot/>
        <stem>down</stem>
        <beam number="1">begin</beam>
        </note>
      <note default-x="145.41" default-y="-130.00">
        <pitch>
          <step>F</step>
          <octave>3</octave>
          </pitch>
        <duration>1</duration>
        <voice>1</voice>
        <type>16th</type>
        <stem>down</stem>
        <beam number="1">end</beam>
        <beam number="2">backward hook</beam>
        </note>
      </measure>
    <measure number="11" width="223.67">
      <note default-x="23.50" default-y="-120.00">
        <pitch>
          <step>A</step>
          <alter>-1</alter>
          <octave>3</octave>
          </pitch>
        <duration>6</duration>
        <voice>1</voice>
        <type>quarter</type>
        <dot/>
        <stem>down</stem>
        </note>
      <note default-x="79.24" default-y="-120.00">
        <pitch>
          <step>A</step>
          <alter>-1</alter>
          <octave>3</octave>
          </pitch>
        <duration>2</duration>
        <voice>1</voice>
        <type>eighth</type>
        <stem>down</stem>
        </note>
      <note default-x="107.80" default-y="-115.00">
        <pitch>
          <step>B</step>
          <alter>-1</alter>
          <octave>3</octave>
          </pitch>
        <duration>2</duration>
        <voice>1</voice>
        <type>eighth</type>
        <stem>down</stem>
        <beam number="1">begin</beam>
        </note>
      <note default-x="136.37" default-y="-115.00">
        <pitch>
          <step>B</step>
          <alter>-1</alter>
          <octave>3</octave>
          </pitch>
        <duration>2</duration>
        <voice>1</voice>
        <type>eighth</type>
        <stem>down</stem>
        <beam number="1">continue</beam>
        </note>
      <note default-x="164.94" default-y="-125.00">
        <pitch>
          <step>G</step>
          <alter>-1</alter>
          <octave>3</octave>
          </pitch>
        <duration>2</duration>
        <voice>1</voice>
        <type>eighth</type>
        <stem>down</stem>
        <beam number="1">continue</beam>
        </note>
      <note default-x="193.51" default-y="-115.00">
        <pitch>
          <step>B</step>
          <alter>-1</alter>
          <octave>3</octave>
          </pitch>
        <duration>2</duration>
        <voice>1</voice>
        <type>eighth</type>
        <stem>down</stem>
        <beam number="1">end</beam>
        </note>
      </measure>
    <measure number="12" width="214.84">
      <note default-x="20.00" default-y="-105.00">
        <pitch>
          <step>D</step>
          <alter>-1</alter>
          <octave>4</octave>
          </pitch>
        <duration>8</duration>
        <voice>1</voice>
        <type>half</type>
        <stem>down</stem>
        </note>
      <note default-x="88.19" default-y="-120.00">
        <pitch>
          <step>A</step>
          <alter>-1</alter>
          <octave>3</octave>
          </pitch>
        <duration>2</duration>
        <voice>1</voice>
        <type>eighth</type>
        <stem>down</stem>
        <beam number="1">begin</beam>
        </note>
      <note default-x="119.19" default-y="-120.00">
        <pitch>
          <step>A</step>
          <alter>-1</alter>
          <octave>3</octave>
          </pitch>
        <duration>2</duration>
        <voice>1</voice>
        <type>eighth</type>
        <stem>down</stem>
        <beam number="1">continue</beam>
        </note>
      <note default-x="151.24" default-y="-125.00">
        <pitch>
          <step>G</step>
          <octave>3</octave>
          </pitch>
        <duration>2</duration>
        <voice>1</voice>
        <type>eighth</type>
        <accidental>natural</accidental>
        <stem>down</stem>
        <beam number="1">continue</beam>
        </note>
      <note default-x="182.24" default-y="-130.00">
        <pitch>
          <step>F</step>
          <octave>3</octave>
          </pitch>
        <duration>2</duration>
        <voice>1</voice>
        <type>eighth</type>
        <stem>down</stem>
        <beam number="1">end</beam>
        </note>
      </measure>
    <measure number="13" width="385.84">
      <print new-system="yes">
        <staff-layout number="1">
          <staff-distance>106.34</staff-distance>
          </staff-layout>
        </print>
      <direction placement="below">
        <direction-type>
          <dynamics>
            <mf/>
            </dynamics>
          </direction-type>
        <sound dynamics="88.89"/>
        </direction>
      <note default-x="112.38" default-y="-136.34">
        <pitch>
          <step>C</step>
          <octave>4</octave>
          </pitch>
        <duration>4</duration>
        <voice>1</voice>
        <type>quarter</type>
        <stem>down</stem>
        </note>
      <note default-x="160.42" default-y="-146.34">
        <pitch>
          <step>A</step>
          <alter>-1</alter>
          <octave>3</octave>
          </pitch>
        <duration>2</duration>
        <voice>1</voice>
        <type>eighth</type>
        <stem>down</stem>
        <beam number="1">begin</beam>
        </note>
      <note default-x="195.36" default-y="-141.34">
        <pitch>
          <step>B</step>
          <alter>-1</alter>
          <octave>3</octave>
          </pitch>
        <duration>2</duration>
        <voice>1</voice>
        <type>eighth</type>
        <stem>down</stem>
        <beam number="1">end</beam>
        </note>
      <direction placement="below">
        <direction-type>
          <words>dim.
</words>
          </direction-type>
        </direction>
      <note default-x="230.30" default-y="-136.34">
        <pitch>
          <step>C</step>
          <octave>4</octave>
          </pitch>
        <duration>2</duration>
        <voice>1</voice>
        <type>eighth</type>
        <stem>down</stem>
        <beam number="1">begin</beam>
        </note>
      <note default-x="265.24" default-y="-136.34">
        <pitch>
          <step>C</step>
          <octave>4</octave>
          </pitch>
        <duration>2</duration>
        <voice>1</voice>
        <type>eighth</type>
        <stem>down</stem>
        <beam number="1">continue</beam>
        </note>
      <note default-x="290.61" default-y="-126.34">
        <grace slash="yes"/>
        <pitch>
          <step>E</step>
          <alter>-1</alter>
          <octave>4</octave>
          </pitch>
        <voice>1</voice>
        <type>eighth</type>
        <stem>up</stem>
        </note>
      <note default-x="316.41" default-y="-131.34">
        <pitch>
          <step>D</step>
          <alter>-1</alter>
          <octave>4</octave>
          </pitch>
        <duration>3</duration>
        <voice>1</voice>
        <type>eighth</type>
        <dot/>
        <stem>down</stem>
        <beam number="1">continue</beam>
        <notations>
          <slur type="stop" number="1"/>
          <slur type="start" number="1"/>
          </notations>
        </note>
      <note default-x="359.01" default-y="-136.34">
        <pitch>
          <step>C</step>
          <octave>4</octave>
          </pitch>
        <duration>1</duration>
        <voice>1</voice>
        <type>16th</type>
        <stem>down</stem>
        <beam number="1">end</beam>
        <beam number="2">backward hook</beam>
        </note>
      </measure>
    <measure number="14" width="197.42">
      <note default-x="26.77" default-y="-156.34">
        <pitch>
          <step>F</step>
          <octave>3</octave>
          </pitch>
        <duration>4</duration>
        <voice>1</voice>
        <type>quarter</type>
        <stem>down</stem>
        </note>
      <note>
        <rest/>
        <duration>4</duration>
        <voice>1</voice>
        <type>quarter</type>
        </note>
      <note>
        <rest/>
        <duration>8</duration>
        <voice>1</voice>
        <type>half</type>
        </note>
      </measure>
    <measure number="15" width="186.10">
      <direction placement="below">
        <direction-type>
          <dynamics>
            <p/>
            </dynamics>
          </direction-type>
        <sound dynamics="54.44"/>
        </direction>
      <note>
        <rest>
          <display-step>e</display-step>
          <display-octave>-8</display-octave>
          </rest>
        <duration>16</duration>
        <voice>1</voice>
        </note>
      <backup>
        <duration>16</duration>
        </backup>
      <note default-x="16.29" default-y="-151.34">
        <pitch>
          <step>G</step>
          <alter>-1</alter>
          <octave>3</octave>
          </pitch>
        <duration>12</duration>
        <voice>3</voice>
        <type>half</type>
        <dot/>
        <stem>up</stem>
        </note>
      <note default-x="142.63" default-y="-151.34">
        <pitch>
          <step>G</step>
          <alter>-1</alter>
          <octave>3</octave>
          </pitch>
        <duration>4</duration>
        <voice>3</voice>
        <type>quarter</type>
        <stem>up</stem>
        </note>
      <backup>
        <duration>16</duration>
        </backup>
      <note default-x="17.03" default-y="-161.34">
        <pitch>
          <step>E</step>
          <alter>-1</alter>
          <octave>3</octave>
          </pitch>
        <duration>12</duration>
        <voice>4</voice>
        <type>half</type>
        <dot/>
        <stem>down</stem>
        </note>
      <note default-x="142.63" default-y="-161.34">
        <pitch>
          <step>E</step>
          <alter>-1</alter>
          <octave>3</octave>
          </pitch>
        <duration>4</duration>
        <voice>4</voice>
        <type>quarter</type>
        <stem>down</stem>
        </note>
      </measure>
    <measure number="16" width="301.23">
      <note>
        <rest>
          <display-step>C</display-step>
          <display-octave>-8</display-octave>
          </rest>
        <duration>16</duration>
        <voice>1</voice>
        </note>
      <backup>
        <duration>16</duration>
        </backup>
      <note default-x="18.35" default-y="-146.34">
        <pitch>
          <step>A</step>
          <alter>-1</alter>
          <octave>3</octave>
          </pitch>
        <duration>6</duration>
        <voice>3</voice>
        <type>quarter</type>
        <dot/>
        <stem>up</stem>
        </note>
      <note>
        <rest/>
        <duration>2</duration>
        <voice>3</voice>
        <type>eighth</type>
        </note>
      <note default-x="172.96" default-y="-131.34">
        <pitch>
          <step>D</step>
          <alter>-1</alter>
          <octave>4</octave>
          </pitch>
        <duration>4</duration>
        <voice>3</voice>
        <type>quarter</type>
        <stem>up</stem>
        </note>
      <note default-x="224.56" default-y="-146.34">
        <pitch>
          <step>A</step>
          <alter>-1</alter>
          <octave>3</octave>
          </pitch>
        <duration>4</duration>
        <voice>3</voice>
        <type>quarter</type>
        <stem>up</stem>
        </note>
      <backup>
        <duration>16</duration>
        </backup>
      <note default-x="18.35" default-y="-156.34">
        <pitch>
          <step>F</step>
          <octave>3</octave>
          </pitch>
        <duration>6</duration>
        <voice>4</voice>
        <type>quarter</type>
        <dot/>
        <stem>down</stem>
        </note>
      <note>
        <rest/>
        <duration>2</duration>
        <voice>4</voice>
        <type>eighth</type>
        </note>
      <note default-x="172.96" default-y="-146.34">
        <pitch>
          <step>A</step>
          <alter>-1</alter>
          <octave>3</octave>
          </pitch>
        <duration>4</duration>
        <voice>4</voice>
        <type>quarter</type>
        <stem>down</stem>
        </note>
      <note default-x="224.56" default-y="-156.34">
        <pitch>
          <step>F</step>
          <octave>3</octave>
          </pitch>
        <duration>4</duration>
        <voice>4</voice>
        <type>quarter</type>
        <stem>down</stem>
        </note>
      </measure>
    <measure number="17" width="260.63">
      <print new-system="yes">
        <staff-layout number="1">
          <staff-distance>106.34</staff-distance>
          </staff-layout>
        </print>
      <note>
        <rest/>
        <duration>16</duration>
        <voice>1</voice>
        </note>
      </measure>
    <measure number="18" width="212.36">
      <note>
        <rest/>
        <duration>16</duration>
        <voice>1</voice>
        </note>
      </measure>
    <measure number="19" width="84.23">
      <note>
        <rest>
          <display-step>A</display-step>
          <display-octave>-1</display-octave>
          </rest>
        <duration>16</duration>
        <voice>1</voice>
        </note>
      <backup>
        <duration>16</duration>
        </backup>
      <note default-x="12.00" default-y="-141.34">
        <pitch>
          <step>B</step>
          <alter>-1</alter>
          <octave>3</octave>
          </pitch>
        <duration>12</duration>
        <voice>3</voice>
        <type>half</type>
        <dot/>
        <stem>up</stem>
        </note>
      <note>
        <rest/>
        <duration>4</duration>
        <voice>3</voice>
        <type>quarter</type>
        </note>
      <backup>
        <duration>16</duration>
        </backup>
      <note default-x="12.74" default-y="-176.34">
        <pitch>
          <step>B</step>
          <alter>-1</alter>
          <octave>2</octave>
          </pitch>
        <duration>12</duration>
        <voice>4</voice>
        <type>half</type>
        <dot/>
        <stem>down</stem>
        </note>
      <note>
        <rest/>
        <duration>4</duration>
        <voice>4</voice>
        <type>quarter</type>
        </note>
      </measure>
    <measure number="20" width="64.17">
      <note>
        <rest/>
        <duration>16</duration>
        <voice>1</voice>
        </note>
      </measure>
    <measure number="21" width="64.17">
      <note>
        <rest/>
        <duration>16</duration>
        <voice>1</voice>
        </note>
      </measure>
    <measure number="22" width="64.17">
      <note>
        <rest/>
        <duration>16</duration>
        <voice>1</voice>
        </note>
      </measure>
    <measure number="23" width="64.17">
      <note>
        <rest/>
        <duration>16</duration>
        <voice>1</voice>
        </note>
      </measure>
    <measure number="24" width="64.17">
      <note>
        <rest/>
        <duration>16</duration>
        <voice>1</voice>
        </note>
      </measure>
    <measure number="25" width="64.17">
      <note>
        <rest/>
        <duration>16</duration>
        <voice>1</voice>
        </note>
      </measure>
    <measure number="26" width="64.17">
      <note>
        <rest/>
        <duration>16</duration>
        <voice>1</voice>
        </note>
      </measure>
    <measure number="27" width="64.17">
      <note>
        <rest/>
        <duration>16</duration>
        <voice>1</voice>
        </note>
      </measure>
    <measure number="28" width="246.44">
      <print new-system="yes">
        <staff-layout number="1">
          <staff-distance>65.00</staff-distance>
          </staff-layout>
        </print>
      <note>
        <rest/>
        <duration>16</duration>
        <voice>1</voice>
        </note>
      </measure>
    <measure number="29" width="163.03">
      <note>
        <rest/>
        <duration>16</duration>
        <voice>1</voice>
        </note>
      </measure>
    <measure number="30" width="163.03">
      <note>
        <rest/>
        <duration>16</duration>
        <voice>1</voice>
        </note>
      </measure>
    <measure number="31" width="163.03">
      <note>
        <rest/>
        <duration>16</duration>
        <voice>1</voice>
        </note>
      </measure>
    <measure number="32" width="163.03">
      <note>
        <rest/>
        <duration>16</duration>
        <voice>1</voice>
        </note>
      </measure>
    <measure number="33" width="172.03">
      <note>
        <rest/>
        <duration>16</duration>
        <voice>1</voice>
        </note>
      <barline location="right">
        <bar-style>light-heavy</bar-style>
        </barline>
      </measure>
    </part>
  </score-partwise>
